<svg width="300" height="69" viewBox="0 0 300 69" fill="none" xmlns="http://www.w3.org/2000/svg">
<path fill-rule="evenodd" clip-rule="evenodd" d="M60.6569 15.6611C56.8716 15.5345 53.1086 16.288 49.6639 17.8622C46.2192 19.4363 43.1867 21.7883 40.805 24.7331C36.6469 29.5925 34.3724 35.7837 34.3958 42.1793C34.3639 48.4769 36.6445 54.5671 40.805 59.2948C43.2124 62.1425 46.2356 64.4059 49.646 65.9138C53.0565 67.4218 56.7651 68.135 60.4916 67.9995C65.5106 68.0431 70.4369 66.6474 74.6872 63.9777C79.0765 61.1726 82.4844 57.0715 84.4387 52.2429C84.4966 52.1357 84.5268 52.0158 84.5268 51.894C84.5268 51.7722 84.4966 51.6523 84.4387 51.5451C84.3788 51.4375 84.2907 51.3481 84.184 51.2867C84.0773 51.2252 83.9558 51.1939 83.8327 51.1962H70.7756C70.6678 51.1958 70.5613 51.2185 70.463 51.2629C70.3648 51.3072 70.2773 51.3722 70.2063 51.4533C68.9048 52.9239 67.2575 54.0474 65.4132 54.7221C63.689 55.3193 61.8755 55.6174 60.0508 55.6036C57.3379 55.6598 54.6831 54.8137 52.5031 53.1979C50.6521 51.8028 49.2635 49.8832 48.518 47.6886H85.0447C85.2284 47.6861 85.4051 47.6181 85.5432 47.4969C85.6812 47.3757 85.7714 47.2092 85.7976 47.0274C85.9631 45.7608 86.0489 44.485 86.0547 43.2077V41.9222C86.2741 34.9879 83.731 28.2504 78.9845 23.1905C76.635 20.7117 73.7869 18.7591 70.6278 17.4612C67.4687 16.1634 64.0703 15.5499 60.6569 15.6611ZM48.4813 35.9721C49.3942 33.7578 50.9161 31.8475 52.8704 30.4628C55.1512 28.8378 57.8935 27.9881 60.6936 28.0387C63.3732 27.9971 65.9967 28.8073 68.1862 30.3526C70.0907 31.7188 71.5222 33.6445 72.2815 35.8619L48.4813 35.9721Z" fill="#3F3F3E"/>
<path fill-rule="evenodd" clip-rule="evenodd" d="M156.83 15.6606C153.342 15.5638 149.873 16.1966 146.644 17.5185C143.415 18.8404 140.498 20.8222 138.08 23.3369C135.677 25.7876 133.789 28.6945 132.527 31.8864C131.266 35.0782 130.656 38.4904 130.734 41.9216C130.794 47.0933 132.376 52.1329 135.283 56.4107C138.19 60.6884 142.293 64.0147 147.079 65.974C151.866 67.9333 157.124 68.4387 162.196 67.4271C167.268 66.4155 171.93 63.9317 175.598 60.286C178.012 57.8826 179.917 55.0182 181.201 51.8633C182.486 48.7084 183.122 45.3275 183.073 41.9216C183.145 38.4744 182.52 35.048 181.236 31.8481C179.952 28.6482 178.034 25.7408 175.598 23.3002C173.172 20.7934 170.25 18.8195 167.019 17.5042C163.787 16.1889 160.317 15.561 156.83 15.6606ZM166.379 51.6364C163.852 54.1585 160.428 55.5749 156.857 55.5749C153.287 55.5749 149.863 54.1585 147.336 51.6364C144.899 48.9743 143.583 45.4746 143.663 41.8666C143.58 38.2305 144.895 34.7012 147.336 32.0049C148.58 30.7372 150.065 29.7303 151.703 29.0429C153.341 28.3556 155.099 28.0015 156.876 28.0015C158.652 28.0015 160.411 28.3556 162.049 29.0429C163.687 29.7303 165.172 30.7372 166.416 32.0049C168.854 34.7031 170.168 38.2311 170.089 41.8666C170.184 45.484 168.851 48.9935 166.379 51.6364Z" fill="#3F3F3E"/>
<path fill-rule="evenodd" clip-rule="evenodd" d="M116.631 12.9982C116.828 12.9983 117.017 12.9215 117.157 12.7842C117.298 12.647 117.379 12.4601 117.384 12.2636V0.767556C117.384 0.567865 117.305 0.376352 117.164 0.235148C117.022 0.093945 116.831 0.0146179 116.631 0.0146179H114.464C112.166 -0.0794177 109.872 0.280952 107.713 1.07508C105.555 1.8692 103.574 3.08148 101.885 4.64243C100.279 6.29922 99.027 8.26585 98.2061 10.4223C97.3852 12.5788 97.0122 14.8799 97.11 17.1853V65.7773C97.11 65.977 97.1893 66.1685 97.3305 66.3097C97.4717 66.451 97.6632 66.5303 97.8629 66.5303H109.359C109.559 66.5303 109.75 66.451 109.891 66.3097C110.033 66.1685 110.112 65.977 110.112 65.7773V28.8283V17.1302C110.128 16.5971 110.25 16.0725 110.471 15.587C110.691 15.1015 111.006 14.6647 111.397 14.3021C112.404 13.4041 113.723 12.936 115.07 12.9982H116.631Z" fill="#3F3F3E"/>
<path fill-rule="evenodd" clip-rule="evenodd" d="M294.252 21.5371C292.353 19.5808 290.064 18.0464 287.532 17.0339C285.001 16.0214 282.285 15.5534 279.56 15.6606C276.096 15.6143 272.674 16.435 269.607 18.0479C267.541 19.1725 265.718 20.6954 264.245 22.5288C262.778 20.696 260.961 19.1728 258.901 18.0479C255.832 16.4394 252.412 15.619 248.947 15.6606C246.208 15.5427 243.475 16.0053 240.927 17.0181C238.379 18.0309 236.075 19.5709 234.164 21.5371C229.995 25.9813 228.655 31.8763 228.655 37.808V65.7768C228.652 65.8749 228.669 65.9724 228.705 66.0636C228.741 66.1549 228.795 66.238 228.863 66.3082C228.932 66.3784 229.013 66.4341 229.104 66.4722C229.194 66.5102 229.291 66.5298 229.389 66.5298H240.904C241.103 66.5298 241.295 66.4505 241.436 66.3093C241.577 66.1681 241.656 65.9765 241.656 65.7768V40.3606C241.55 37.699 241.961 35.0419 242.869 32.5374C243.471 31.087 244.517 29.864 245.856 29.0429C247.194 28.2218 248.758 27.8444 250.324 27.9647C251.865 27.8443 253.403 28.2126 254.722 29.017C256.041 29.8214 257.072 31.0212 257.67 32.4456C258.65 34.9651 259.1 37.6595 258.992 40.3606V46.8799C258.992 47.0796 259.072 47.2711 259.213 47.4123C259.354 47.5535 259.546 47.6329 259.745 47.6329H268.928C269.026 47.6329 269.123 47.6133 269.213 47.5753C269.303 47.5372 269.385 47.4814 269.454 47.4113C269.522 47.3411 269.576 47.2579 269.612 47.1667C269.647 47.0754 269.665 46.9779 269.662 46.8799V40.3606C269.564 37.66 270.013 34.9675 270.984 32.4456C271.582 31.0212 272.614 29.8214 273.932 29.017C275.251 28.2126 276.79 27.8443 278.33 27.9647C279.896 27.8444 281.46 28.2218 282.799 29.0429C284.138 29.864 285.183 31.087 285.786 32.5374C286.708 35.0384 287.126 37.6972 287.016 40.3606V65.7768C287.014 65.8749 287.031 65.9724 287.067 66.0636C287.103 66.1549 287.156 66.238 287.225 66.3082C287.293 66.3784 287.375 66.4341 287.466 66.4722C287.556 66.5102 287.653 66.5298 287.751 66.5298H299.247C299.447 66.5298 299.638 66.4505 299.779 66.3093C299.921 66.1681 300 65.9765 300 65.7768V37.808C299.761 31.8763 298.421 25.9813 294.252 21.5371Z" fill="#3F3F3E"/>
<path fill-rule="evenodd" clip-rule="evenodd" d="M217.048 17.3496C215.715 17.3496 214.412 17.7449 213.304 18.4855C212.196 19.226 211.332 20.2786 210.822 21.5101C210.312 22.7417 210.178 24.0968 210.438 25.4042C210.698 26.7116 211.34 27.9125 212.283 28.855C213.225 29.7976 214.426 30.4395 215.733 30.6995C217.041 30.9596 218.396 30.8261 219.627 30.316C220.859 29.8059 221.912 28.942 222.652 27.8337C223.393 26.7254 223.788 25.4223 223.788 24.0893C223.788 22.3018 223.078 20.5876 221.814 19.3236C220.55 18.0597 218.836 17.3496 217.048 17.3496Z" fill="#E5D189"/>
<path d="M23.4145 30.829C27.1368 30.829 30.1542 27.8116 30.1542 24.0893C30.1542 20.3671 27.1368 17.3496 23.4145 17.3496C19.6923 17.3496 16.6748 20.3671 16.6748 24.0893C16.6748 27.8116 19.6923 30.829 23.4145 30.829Z" fill="#E5D189"/>
<path fill-rule="evenodd" clip-rule="evenodd" d="M12.1391 17.1299H0.734803C0.636773 17.1299 0.539728 17.1494 0.449387 17.1875C0.359046 17.2256 0.277236 17.2813 0.208779 17.3515C0.140322 17.4217 0.0866026 17.5048 0.0507857 17.5961C0.0149687 17.6873 -0.00222117 17.7848 0.000229603 17.8828V65.777C-0.00222117 65.875 0.0149687 65.9725 0.0507857 66.0638C0.0866026 66.155 0.140322 66.2382 0.208779 66.3084C0.277236 66.3785 0.359046 66.4343 0.449387 66.4724C0.539728 66.5104 0.636773 66.53 0.734803 66.53H12.1391C12.3388 66.53 12.5303 66.4506 12.6715 66.3094C12.8127 66.1682 12.892 65.9767 12.892 65.777V17.8828C12.892 17.6831 12.8127 17.4916 12.6715 17.3504C12.5303 17.2092 12.3388 17.1299 12.1391 17.1299Z" fill="#3F3F3E"/>
<path fill-rule="evenodd" clip-rule="evenodd" d="M121.59 17.3496C120.257 17.3496 118.954 17.7449 117.846 18.4855C116.738 19.226 115.874 20.2786 115.364 21.5101C114.854 22.7417 114.72 24.0968 114.98 25.4042C115.24 26.7116 115.882 27.9125 116.825 28.855C117.767 29.7976 118.968 30.4395 120.275 30.6995C121.583 30.9596 122.938 30.8261 124.169 30.316C125.401 29.8059 126.454 28.942 127.194 27.8337C127.935 26.7254 128.33 25.4223 128.33 24.0893C128.33 22.3018 127.62 20.5876 126.356 19.3236C125.092 18.0597 123.378 17.3496 121.59 17.3496Z" fill="#E5D189"/>
<path fill-rule="evenodd" clip-rule="evenodd" d="M205.79 17.1299H194.276C194.178 17.1299 194.081 17.1494 193.99 17.1875C193.9 17.2256 193.818 17.2813 193.75 17.3515C193.681 17.4217 193.628 17.5048 193.592 17.5961C193.556 17.6873 193.539 17.7848 193.541 17.8828V65.777C193.539 65.875 193.556 65.9725 193.592 66.0638C193.628 66.155 193.681 66.2382 193.75 66.3084C193.818 66.3785 193.9 66.4343 193.99 66.4724C194.081 66.5104 194.178 66.53 194.276 66.53H205.79C205.888 66.53 205.985 66.5104 206.076 66.4724C206.166 66.4343 206.248 66.3785 206.316 66.3084C206.385 66.2382 206.438 66.155 206.474 66.0638C206.51 65.9725 206.527 65.875 206.525 65.777V17.8828C206.527 17.7848 206.51 17.6873 206.474 17.5961C206.438 17.5048 206.385 17.4217 206.316 17.3515C206.248 17.2813 206.166 17.2256 206.076 17.1875C205.985 17.1494 205.888 17.1299 205.79 17.1299Z" fill="#3F3F3E"/>
<path fill-rule="evenodd" clip-rule="evenodd" d="M264.098 52.3906C265.431 52.3906 266.734 52.7859 267.842 53.5265C268.951 54.267 269.815 55.3196 270.325 56.5512C270.835 57.7827 270.968 59.1378 270.708 60.4452C270.448 61.7526 269.806 62.9535 268.864 63.896C267.921 64.8386 266.72 65.4805 265.413 65.7406C264.106 66.0006 262.75 65.8671 261.519 65.357C260.287 64.8469 259.235 63.9831 258.494 62.8747C257.754 61.7664 257.358 60.4633 257.358 59.1303C257.358 57.3429 258.068 55.6286 259.332 54.3646C260.596 53.1007 262.311 52.3906 264.098 52.3906Z" fill="#E5D189"/>
</svg>
